<svg xmlns="http://www.w3.org/2000/svg" width="128" height="128" viewBox="0 0 128 128"><g transform="translate(732 -1950)"><g transform="translate(-732 1950)"><path d="M64,128a64.473,64.473,0,0,1-12.9-1.3,63.649,63.649,0,0,1-22.885-9.63A64.187,64.187,0,0,1,5.029,88.912,63.678,63.678,0,0,1,1.3,76.9a64.624,64.624,0,0,1,0-25.8,63.649,63.649,0,0,1,9.63-22.885A64.187,64.187,0,0,1,39.088,5.029,63.677,63.677,0,0,1,51.1,1.3a64.624,64.624,0,0,1,25.8,0,63.649,63.649,0,0,1,22.885,9.63,64.187,64.187,0,0,1,23.188,28.158A63.677,63.677,0,0,1,126.7,51.1a64.625,64.625,0,0,1,0,25.8,63.65,63.65,0,0,1-9.63,22.885,64.187,64.187,0,0,1-28.158,23.188A63.678,63.678,0,0,1,76.9,126.7,64.474,64.474,0,0,1,64,128ZM64,7.75A56.25,56.25,0,1,0,120.25,64,56.314,56.314,0,0,0,64,7.75Z" fill="#3152f8"/></g><g transform="translate(-721.333 1960.667)" fill="#fff" stroke="#000" stroke-width="1"><circle cx="53.333" cy="53.333" r="53.333" stroke="none"/><circle cx="53.333" cy="53.333" r="52.833" fill="none"/></g></g></svg>