<svg xmlns="http://www.w3.org/2000/svg" width="542" height="542.002" viewBox="0 0 542 542.002"><g transform="translate(-249 -2211)"><g transform="translate(368.369 2255.539)"><g transform="translate(211.732 10.082)"><path d="M291.84,10.24V50.57A40.448,40.448,0,0,0,332.17,90.9H372.5Z" transform="translate(-291.84 -10.24)"/></g><g transform="translate(0)"><path d="M328.862,110.907a60.673,60.673,0,0,1-60.495-60.495V0H127.212A50.561,50.561,0,0,0,76.8,50.412V403.3a50.561,50.561,0,0,0,50.412,50.412h201.65A50.561,50.561,0,0,0,379.274,403.3V110.907ZM127.212,40.33H228.037a10.082,10.082,0,1,1,0,20.165H127.212a10.082,10.082,0,1,1,0-20.165Zm0,100.825h201.65a10.082,10.082,0,0,1,0,20.165H127.212a10.082,10.082,0,1,1,0-20.165Zm0,50.412h201.65a10.082,10.082,0,0,1,0,20.165H127.212a10.082,10.082,0,1,1,0-20.165Zm0,50.412h201.65a10.082,10.082,0,0,1,0,20.165H127.212a10.082,10.082,0,1,1,0-20.165Zm43.859,122c-5.041,4.537-12.6,7.058-22.686,7.058H137.295V391.2c0,4.033-1.008,7.058-2.521,9.074-2.017,2.016-4.537,3.529-7.058,3.529a9.07,9.07,0,0,1-7.562-3.529c-2.016-2.017-2.521-5.041-2.521-9.074V329.7c0-4.033,1.008-7.562,3.025-9.578s5.041-3.025,9.074-3.025H148.89a52.249,52.249,0,0,1,14.115,1.512,20.163,20.163,0,0,1,9.074,5.041c2.521,2.521,4.537,5.041,5.545,8.57a39.326,39.326,0,0,1,2.017,11.091C179.137,352.383,176.616,359.44,171.071,363.977Zm93.263,9.074c-1.008,4.033-2.016,8.066-4.033,11.091a29.926,29.926,0,0,1-6.554,9.074,22.723,22.723,0,0,1-7.058,5.041,49.553,49.553,0,0,1-8.066,2.521,57.888,57.888,0,0,1-9.578.5H209.385a16.834,16.834,0,0,1-7.562-1.512c-2.016-1.008-3.025-3.025-4.033-5.041a28.844,28.844,0,0,1-.5-7.058V329.7q0-6.049,3.025-9.074t9.074-3.025h19.661a50.73,50.73,0,0,1,13.611,1.512,26.8,26.8,0,0,1,11.091,6.049c8.066,7.562,12.6,19.157,12.6,34.28C265.342,364.482,265.342,369.019,264.334,373.052Zm73.6-40.834a9.973,9.973,0,0,1-7.058,2.521H303.656v15.124h22.181a10.928,10.928,0,0,1,7.058,2.521,8.52,8.52,0,0,1,0,12.1A9.973,9.973,0,0,1,325.837,367H303.656V390.7c0,4.033-1.008,7.058-2.521,9.074-2.016,2.017-4.537,3.529-7.058,3.529a9.07,9.07,0,0,1-7.562-3.529c-2.016-2.017-2.521-5.041-2.521-9.074v-61A22.375,22.375,0,0,1,285,323.143a11.9,11.9,0,0,1,4.033-4.537,12.612,12.612,0,0,1,6.554-1.512h35.289a9.973,9.973,0,0,1,7.058,2.521,8.349,8.349,0,0,1,2.521,6.049C340.457,328.689,339.953,330.705,337.936,332.218Z" transform="translate(-76.8)"/></g><g transform="translate(140.146 335.242)"><path d="M243.838,348.042c-1.008-3.025-3.529-5.545-6.049-6.049A34.645,34.645,0,0,0,226.7,340.48h-7.562v48.9h14.62a9.346,9.346,0,0,0,3.529-1.008,10.543,10.543,0,0,0,3.025-2.017c4.537-4.033,6.554-11.595,6.554-21.677Q246.863,353.335,243.838,348.042Z" transform="translate(-219.136 -340.48)"/></g><g transform="translate(60.495 334.738)"><path d="M157.4,342.489c-1.008-1.512-4.033-2.521-11.091-2.521H138.24v19.157H145.8a35.086,35.086,0,0,0,8.066-1.008,6.261,6.261,0,0,0,4.033-3.025,10.162,10.162,0,0,0,1.512-5.545C159.413,346.521,158.909,344.505,157.4,342.489Z" transform="translate(-138.24 -339.968)"/></g></g><g transform="translate(264 2226)"><path d="M264,2304.8v-78.77h78.769" transform="translate(-264 -2226.034)" fill="none" stroke="#000" stroke-linecap="round" stroke-linejoin="round" stroke-width="30"/><path d="M0,78.769V0H78.769" transform="translate(0 512.001) rotate(-90)" fill="none" stroke="#000" stroke-linecap="round" stroke-linejoin="round" stroke-width="30"/><path d="M0,78.769V0H78.769" transform="translate(512 512.002) rotate(-180)" fill="none" stroke="#000" stroke-linecap="round" stroke-linejoin="round" stroke-width="30"/><path d="M0,78.769V0H78.769" transform="translate(512 0) rotate(90)" fill="none" stroke="#000" stroke-linecap="round" stroke-linejoin="round" stroke-width="30"/></g></g></svg>